<?xml version="1.0" encoding="UTF-8"?><svg id="Layer_2" xmlns="http://www.w3.org/2000/svg" viewBox="0 0 198.72 194.37"><defs><style>.cls-1{fill:#fff;}</style></defs><g id="_ÎÓÈ_1"><g><path class="cls-1" d="M163.03,194.37H35.69c-19.68,0-35.69-16.01-35.69-35.69V35.69C0,16.01,16.01,0,35.69,0h127.34c19.68,0,35.69,16.01,35.69,35.69v123c0,19.68-16.01,35.69-35.69,35.69ZM35.69,10c-14.16,0-25.69,11.52-25.69,25.69v123c0,14.16,11.52,25.69,25.69,25.69h127.34c14.16,0,25.69-11.52,25.69-25.69V35.69c0-14.16-11.52-25.69-25.69-25.69H35.69Z"/><path class="cls-1" d="M71.42,52.29h-29.03v59.07h0v23.39h15.65v-23.39h13.38c16.24,0,29.54-13.29,29.54-29.54h0c0-16.24-13.29-29.54-29.54-29.54Zm13.91,29.54c0,7.76-6.2,14.11-13.77,14.11h-13.51v-28.22h13.51c7.57,0,13.77,6.35,13.77,14.11h0Z"/><path class="cls-1" d="M152.29,76.19s-5.33-4.21-16.32-4.21-26.82,3.45-26.82,19.86c0,18.96,27.83,17.25,27.83,26.93,0,7.66-20.32,4.31-27.83-3.2v17.45s5.69,5.86,19.58,5.86,27.6-6.73,27.6-19.61c0-15.99-19.92-21.15-19.92-21.15,0,0-11.95-3.25-11.72-7.88,.11-2.35,1.85-5.13,11.28-5.13s16.24,6.56,16.24,6.56l.08-15.48Z"/></g></g></svg>