<?xml version="1.0" encoding="UTF-8"?><svg id="Layer_2" xmlns="http://www.w3.org/2000/svg" viewBox="0 0 199.22 194.87"><defs><style>.cls-1{fill:#fff;}</style></defs><g id="_ÎÓÈ_1"><g><path class="cls-1" d="M198.97,35.94v122.99c0,19.68-16.01,35.69-35.68,35.69H35.94C16.26,194.62,.25,178.61,.25,158.93V35.94C.25,16.26,16.26,.25,35.94,.25h127.35c19.67,0,35.68,16.01,35.68,35.69Zm-10,122.99V35.94c0-14.17-11.52-25.69-25.68-25.69H35.94c-14.16,0-25.69,11.52-25.69,25.69v122.99c0,14.17,11.53,25.69,25.69,25.69h127.35c14.16,0,25.68-11.52,25.68-25.69Z"/><rect class="cls-1" x="126.11" y="72.33" width="20.29" height="62.68"/><path class="cls-1" d="M136.25,47.31c5.41,0,9.79,4.38,9.79,9.78s-4.38,9.79-9.79,9.79-9.78-4.38-9.78-9.79,4.38-9.78,9.78-9.78Z"/><path class="cls-1" d="M91.14,52.7l26.23,82.31h-15.34l-6.22-19.52h-31.61l-6.22,19.52h-15.34l26.23-82.31h22.27Zm-.34,47.06l-10.79-33.86-10.79,33.86h21.58Z"/></g></g></svg>