<?xml version="1.0" encoding="UTF-8"?><svg id="Layer_2" xmlns="http://www.w3.org/2000/svg" viewBox="0 0 767.78 835.73"><defs><style>.cls-1{fill:#fff;}</style></defs><g id="Layer_1-2"><g><path class="cls-1" d="M767.53,351.6v423.75c0,16.53-6.78,31.58-17.66,42.46-10.94,10.89-25.97,17.66-42.49,17.66H60.37c-16.5,0-31.52-6.74-42.44-17.66-10.94-10.88-17.68-25.93-17.68-42.46V351.6c0-6.29,.79-13.12,2.77-19.53,1.9-5.98,4.85-11.62,9.22-16.16l94.11-89.63v-72.79c0-17.35,7.11-33.17,18.56-44.59,11.43-11.51,27.25-18.63,44.65-18.63h79c29.77-28.57,53.09-50.2,73.31-64.97C344.66,8.61,363.96,.25,383.89,.25s39.2,8.36,62.02,25.05c20.21,14.77,43.54,36.4,73.3,64.97h79c17.38,0,33.2,7.12,44.65,18.57,11.45,11.48,18.57,27.3,18.57,44.65v72.79l94.11,89.63c4.36,4.57,7.31,10.18,9.18,16.16,2.01,6.41,2.81,13.24,2.81,19.53Zm-25.85,422.48V352.85l-157.3,149.72-.74,.74-.76,.71-.74,.71-.73,.71h-.03l-.71,.71h-.03l-.71,.7h-.03l-.71,.68-.02,.03-.71,.68-.03,.03-.71,.68-.03,.03-1.44,1.36-.03,.03-.68,.65-.03,.06-.71,.65-.03,.03-1.42,1.33-.02,.06-1.39,1.33-.06,.03-1.22,1.19-.14,.14-.06,.06-.65,.62-.06,.06-.65,.59-.05,.09-.66,.59-.68,.68-.08,.06-1.33,1.27-.06,.09-.62,.6-.09,.05-.62,.6-.06,.08-.62,.6-.09,.05-.59,.6-.09,.08-.59,.57-.09,.09-.59,.56-.12,.09-.59,.59-.09,.06-.59,.6-.09,.08-.56,.57-.12,.08-.57,.57-.11,.08-.57,.54-.11,.12-.57,.53-.08,.12-.57,.54-.11,.08-.57,.57-.11,.08-.54,.54-.11,.12-.57,.53-.11,.09-.54,.54-.12,.11-.53,.54-.12,.09-.56,.53-.12,.12-.54,.51-.11,.11-.54,.51-.11,.11-.54,.54-.11,.12-.54,.51-.12,.11-.53,.51-.12,.11-.51,.51-.14,.12-.51,.51-.14,.11-.51,.48-.11,.14-.52,.49-.14,.14-.51,.48-.14,.11-.48,.51-.14,.12-.51,.48-.15,.14-.48,.48-.14,.14-.48,.46-.14,.14-.48,.48-.17,.14-.46,.46-.17,.14-.48,.45-.14,.14-.45,.49-.17,.14-.46,.45-.17,.14-.45,.46-.17,.14-3.55,3.43-15.98,15.39,19.5,18.74c13.27,12.81,27.72,26.76,43.85,42.12l157.3,149.73Zm-10.35,25.76l-164.72-156.81c-15.85-15.11-30.53-29.25-43.97-42.21l-20.29-19.53c-52.22,49.3-84.05,73.96-118.46,73.96s-66.28-24.66-118.49-73.99c-6.61,6.35-13.44,12.93-20.61,19.85-13.35,12.89-27.92,26.95-43.62,41.92L36.47,799.81c6.15,6.07,14.63,9.81,23.9,9.81H707.38c9.29,0,17.74-3.74,23.95-9.78Zm-69.9-406.2l69.19-65.88-69.19-65.88v131.76Zm-25.88,24.63V153.49c0-10.26-4.2-19.62-10.94-26.39-6.81-6.75-16.16-10.97-26.4-10.97H169.56c-10.26,0-19.59,4.22-26.36,10.99-6.78,6.75-11,16.11-11,26.37V418.27l68.97,65.62,.73,.71,.74,.71,.71,.68,.03,.03,.71,.68,.02,.03,.71,.65,.03,.03,.71,.68,.03,.03,.68,.65,.03,.05,.7,.66,.03,.03,.71,.65,.03,.05,.68,.66,.06,.03,.68,.65,.03,.05,.68,.63,.05,.05,.66,.63,.05,.05,.65,.66,.09,.05,.65,.63,.06,.05,.65,.63,.06,.05,.65,.63,.05,.05,.66,.6,.05,.08,.66,.6,.05,.08,.65,.6,.09,.08,.59,.6,.12,.09,.59,.59,.09,.08,.62,.57,.09,.12,.59,.56,.12,.12,.59,.56,.11,.09,.57,.56,.11,.12,.6,.54,.11,.14,.57,.54,.11,.11,.57,.54,.14,.14,.57,.54,.11,.11,.57,.54,.14,.11,.54,.54,.14,.15,.54,.51,.14,.14,.54,.51,.14,.14,.54,.51,.14,.14,.54,.51,.14,.17,.54,.48,.14,.17,.51,.48,.17,.17,.51,.49,.17,.17,.51,.48,.17,.14,.49,.48,.17,.17,.51,.48,.17,.17,.48,.46,.2,.2,.45,.45,.2,.17,.48,.45,.17,.2,.48,.46,.2,.17,.45,.45,.2,.2,.46,.45,.19,.17,.46,.46,.22,.19,.43,.43,.23,.2,.42,.42,.23,.2,.42,.43,.23,.22,.43,.4,.22,.23,.43,.39,.22,.23,.43,.4,.23,.22,.39,.4,.23,.23,.43,.37,.22,.25,.4,.37,.25,.23,.37,.39,.26,.23,.4,.37,.25,.25,.37,.37,.25,.26,.37,.36,.29,.23,.36,.37,.26,.26,.37,.34,.25,.25,.23,.23,.48,.48,.48,.45,.49,.48,.51,.46,.48,.45,.48,.48,.17,.17,.31,.29,.45,.45,.49,.48,.48,.46,.48,.45,.48,.48,.46,.46,.11,.08,.37,.37,.48,.45,.48,.46,.45,.45,.49,.45,.45,.46,.48,.45,.03,.03,.43,.42,.48,.46,.45,.42,.48,.46,.46,.45,.45,.45,.43,.4,.02,.03,.49,.45,.45,.46,.45,.42,.46,.45,.45,.43,.48,.45,.31,.29,.15,.14,.45,.45,.45,.43,.46,.45,.45,.43,.45,.42,.43,.45,.22,.17,.23,.26,.46,.43,.45,.42,.45,.43,.46,.42,.42,.45,5.76,5.5,.45,.4,.23,.25,.19,.17,.43,.43,.45,.4v.03c52.53,50.14,82.49,75.26,109.65,75.26s57.09-25.09,109.64-75.26v-.03l5.27-5.02,.43-.43,.45-.42,.46-.43,.87-.85,.46-.42,.42-.43,.46-.45,.45-.42,.45-.43,.29-.26,.17-.17,.42-.42,.46-.45,.45-.43h.03l.88-.88,.45-.42,.2-.17,.25-.29,.46-.42,.48-.43,.45-.45,.46-.43,.45-.45,.45-.45,.12-.09,.34-.34,.48-.45,.45-.46,.46-.42,.48-.45,.45-.46,.45-.45,.03-.03,.46-.43,.45-.42,.48-.45,.46-.46,.48-.45,.48-.45,.94-.94,.48-.45,.93-.91,.48-.45,.49-.49,.36-.34,.12-.11,.48-.45,.96-.94,.49-.45,.48-.48,.48-.46,.31-.31,.17-.17,.45-.45,.17-.14,.49-.46,.14-.17,.48-.45,.17-.14,.45-.49,.17-.14,.49-.45,.14-.14,.51-.48,.14-.15,1.13-1.1,.14-.14,1.14-1.11,.14-.11,.51-.51,.14-.12,.51-.51,.14-.14,.51-.48,.15-.14,.51-.48,.14-.15,.54-.5,.11-.12,.54-.51,.11-.11,.54-.54,.11-.11,.54-.51,.14-.12,.54-.54,.12-.08,.54-.54,.11-.11,.57-.54,.11-.12,.54-.53,.11-.09,.57-.54,.11-.11,.57-.54,.08-.11,.57-.54,.11-.09,.57-.56,.11-.09,.57-.56,.09-.09,.59-.57,.09-.08,.59-.57,.09-.08,.59-.57,.09-.09,.59-.56,.09-.09,.59-.59,.09-.09,.62-.57,.06-.08,.62-.57,.09-.08,.59-.6,.09-.05,.62-.6,.06-.08,.62-.6,.09-.06,.62-.59,.06-.09,.65-.59,.05-.06,1.34-1.3,.05-.06,1.36-1.27,.06-.06,.65-.63,.03-.05,.68-.63,.03-.05,2.81-2.67,.05-.05,.65-.66,.06-.02,.68-.66,.03-.02,.68-.66,.03-.02,.71-.69h.03l.68-.67,.02-.03,.71-.68h.03l.71-.68v-.03l.71-.68h.03l.71-.68,.02-.03,.71-.68,.74-.71,.74-.68v-.03l.73-.68,.74-.71,.74-.71,68.94-65.62ZM285.95,90.27h195.85c-19.93-18.73-36.54-33.5-51.14-44.16-18.2-13.32-32.83-19.98-46.77-19.98s-28.58,6.66-46.77,19.98c-14.6,10.66-31.21,25.43-51.17,44.16Zm-59.05,492.27l19.82-19.05-.29-.28-.28-.29-.31-.28-.28-.28-.32-.29-.28-.28-.28-.28-.23-.2-.08-.09-.29-.28-.31-.29-.28-.31-.32-.28-.28-.28-.31-.29-.31-.28-.28-.28-.32-.32-.31-.28-.25-.25-.03-.03-.31-.29-.32-.31-.28-.28-.31-.28-.31-.32-.31-.28-.29-.28-.31-.32-.31-.28-.31-.31-.29-.28h-.03l-.31-.32-.59-.59-.31-.28-.32-.32-.31-.28-.31-.31-.31-.31-.63-.6-.31-.31h-.03l-.28-.28-.31-.32-.62-.59-.34-.31-.32-.31-.31-.32-.31-.28-.31-.31-.65-.63-.03-.02-.29-.29-.31-.31-.34-.28-.31-.31-.31-.32-.31-.31-.34-.31-.32-.31-.34-.31-.31-.31-.31-.32-.08-.05-.26-.26-.34-.34-.28-.25-.37-.37-.26-.23-.36-.37-.26-.25-.37-.34-.25-.26-.37-.37-.26-.22-.37-.37-.25-.23-.4-.4-.22-.22-.4-.4-.23-.2-.4-.39-.25-.23-.4-.4-.22-.23-.43-.39-.23-.2-.39-.43-.23-.19-.42-.43-.23-.2-.43-.39-.19-.23-.46-.43-.2-.2-.45-.42-.2-.2-.45-.42-.2-.2-.45-.43-.2-.2-.46-.42-.19-.2-.46-.45-.2-.17-.45-.46-.2-.19-.48-.46-.17-.17-.48-.45-.2-.2-.48-.45-.17-.17-.48-.49-.17-.17-.52-.45-.17-.17-.51-.48-.14-.17-.51-.48-.17-.17-.51-.49-.17-.14-.51-.51-.17-.14-.51-.51-.17-.14-.51-.51-.14-.14-.54-.54-.14-.11-.57-.54-.14-.15-.54-.51-.14-.14-.54-.54-.14-.11-.57-.54-.11-.11-.57-.57-.14-.11-.57-.54-.11-.11-.59-.57-.12-.11-.56-.57-.12-.09-.59-.56-.12-.12-.59-.56-.12-.12-.59-.56-.09-.09-.62-.59-.08-.09-1.28-1.22-.08-.08-.06-.06-.65-.62-.09-.06-.62-.62-.09-.09-.65-.59-.06-.09-1.39-1.3-.05-.06-.68-.65-.03-.06-.68-.65-.06-.03-.68-.65-.05-.06-.68-.65-.06-.03-.68-.68-.03-.03-.71-.68-.03-.03-.71-.67-.02-.03-.74-.68v-.03l-.74-.68-.03-.03-.7-.68-.03-.03-.74-.68v-.03l-.77-.71L26.1,352.85v421.23l157.26-149.73c16.02-15.25,30.39-29.11,43.54-41.81Zm-120.55-188.9v-131.76l-69.2,65.88,69.2,65.88Z"/><path class="cls-1" d="M510.99,420.82h29.85c-5.64,11.6-15.31,23.47-29,35.52-13.69,12.05-29.99,21.6-48.87,28.63-18.9,7-41.69,10.52-68.28,10.52-24.55,0-47.17-3.18-67.89-9.44-20.75-6.3-38.41-15.73-52.98-28.35-14.6-12.67-25.57-27.21-33-43.62-9.27-20.87-13.92-43.37-13.92-67.53,0-26.87,5.56-52.55,16.59-76.93,13.52-29.87,32.68-52.78,57.54-68.68,24.8-15.88,54.91-23.81,90.31-23.81,27.44,0,52.1,5.61,73.93,16.81,21.85,11.19,39.09,27.89,51.65,50.06,10.74,19.05,16.13,39.82,16.13,62.22,0,32-11.26,60.4-33.76,85.24-20.16,22.28-42.1,33.42-65.97,33.42-7.62,0-13.75-1.17-18.45-3.49-4.68-2.32-8.14-5.67-10.35-10.01-1.47-2.77-2.49-7.59-3.17-14.37-7.17,8.31-15.19,14.97-24.15,20.01-8.87,5.05-17.8,7.54-26.73,7.54-9.87,0-19.42-2.89-28.75-8.61-9.27-5.76-16.81-14.6-22.62-26.54-5.84-11.93-8.73-25.05-8.73-39.31,0-17.58,4.54-35.18,13.52-52.81,9.02-17.6,20.21-30.84,33.57-39.72,13.32-8.84,26.33-13.23,38.89-13.23,9.64,0,18.79,2.49,27.55,7.51,8.7,5.04,16.24,12.73,22.51,22.96l5.84-25.74h29.53l-23.87,111.35c-3.34,15.47-4.98,24.03-4.98,25.65,0,3,1.13,5.61,3.4,7.77,2.24,2.15,5.02,3.23,8.19,3.23,5.87,0,13.58-3.35,23.07-10.09,12.62-8.82,22.62-20.64,29.99-35.52,7.35-14.83,11.03-30.08,11.03-45.87,0-18.45-4.76-35.63-14.2-51.59-9.44-16.01-23.58-28.8-42.38-38.41-18.71-9.55-39.46-14.37-62.16-14.37-25.91,0-49.61,6.07-70.98,18.12-21.43,12.1-38.07,29.39-49.83,51.98-11.82,22.57-17.72,46.77-17.72,72.63s5.9,50.28,17.66,69.79c11.82,19.58,28.86,34.01,51.14,43.34,22.28,9.32,46.94,13.97,74.04,13.97,29.02,0,53.29-4.87,72.85-14.65,19.58-9.73,34.21-21.6,43.96-35.58Zm-100-70.55c3.99-11.2,5.98-22.45,5.98-33.76,0-15-3.72-26.71-11.2-34.95-7.45-8.31-16.55-12.45-27.27-12.45-7.06,0-13.75,1.82-20.01,5.39-6.24,3.6-12.28,9.38-18.17,17.35-5.81,7.9-10.58,17.6-14.09,29.02-3.54,11.37-5.3,21.83-5.3,31.33,0,15.16,3.63,26.92,10.8,35.29,7.17,8.44,15.39,12.61,24.72,12.61,6.15,0,12.67-1.84,19.58-5.53,6.84-3.74,13.38-9.21,19.62-16.52,6.26-7.29,11.37-16.59,15.34-27.78Z"/></g></g></svg>