<?xml version="1.0" encoding="UTF-8"?><svg id="Layer_2" xmlns="http://www.w3.org/2000/svg" viewBox="0 0 835.7 592.01"><defs><style>.cls-1{fill:#fff;}</style></defs><g id="Layer_1-2"><path class="cls-1" d="M835.45,64.74v462.55c0,17.75-7.26,33.88-18.91,45.56-11.73,11.65-27.83,18.9-45.55,18.9H64.71c-17.69,0-33.82-7.25-45.49-18.93C7.51,561.17,.25,545.04,.25,527.29V64.74C.25,46.99,7.51,30.86,19.19,19.18,30.84,7.5,46.97,.25,64.71,.25H770.99c17.75,0,33.88,7.25,45.55,18.93,11.65,11.68,18.91,27.81,18.91,45.56Zm-25.85,462.55V64.74l-.03-1.36-173.65,165.31c-17.57,16.73-33.36,31.98-47.85,45.95-7.74,7.48-15.11,14.6-22.17,21.37,7.01,6.75,14.46,13.92,22.26,21.46,14.45,13.95,30.21,29.17,47.76,45.87l173.65,165.31,.03-1.36Zm-11.37,27.3l.57-.57-180.65-172c-17.29-16.44-33.25-31.84-47.85-45.95l-23.07-22.25-2.7,2.52-2.35,2.24-.28,.22-2.58,2.44-.32,.31-2.26,2.1c-51.14,47.57-83.85,71.38-118.89,71.38s-64.46-21.49-111.34-64.43l-.54-.48-1.93-1.79-1.1-1.02-1.42-1.31-2.55-2.35-2.24-2.1-.31-.31-2.61-2.44-.26-.19-2.38-2.27-.82-.77-1.84-1.75-23.08,22.22c-14.62,14.12-30.58,29.54-47.85,45.98L36.93,554l.54,.53c6.97,7.03,16.61,11.37,27.24,11.37H770.99c10.63,0,20.3-4.34,27.24-11.31Zm-180.08-344.58L798.8,38.03l-.57-.56c-6.97-7.01-16.64-11.34-27.24-11.34H64.71c-10.6,0-20.24,4.33-27.24,11.34l-.54,.56L217.58,210.01c17.3,16.47,33.31,31.92,47.97,46.06,9.44,9.13,18.28,17.66,26.64,25.69l5.16,4.9c57.63,54.96,90.4,82.46,120.5,82.46s62.9-27.5,120.5-82.46l1.11-1.02,3.2-3.06,.26-.26c8.53-8.19,17.6-16.92,27.27-26.27,14.65-14.15,30.64-29.57,47.96-46.04Zm-348.32,86c-7.06-6.77-14.43-13.89-22.17-21.34-14.49-13.98-30.27-29.23-47.88-45.98L26.13,63.38l-.03,1.36v462.55l.03,1.36,173.65-165.31c17.55-16.73,33.34-31.92,47.77-45.87,7.82-7.54,15.25-14.71,22.28-21.46Z"/></g></svg>