<?xml version="1.0" encoding="UTF-8"?>
<svg xmlns="http://www.w3.org/2000/svg" xmlns:xlink="http://www.w3.org/1999/xlink" viewBox="0 0 100 100" width="100px" height="100px">
<g id="surface126228421">
<path style=" stroke:none;fill-rule:nonzero;fill:rgb(100%,100%,100%);fill-opacity:1;" d="M 78.160156 2.003906 C 77.457031 2.003906 76.734375 2.097656 76.023438 2.296875 L 7.585938 21.546875 C 5.601562 22.101562 3.921875 23.417969 2.929688 25.210938 C 1.976562 26.933594 1.742188 28.972656 2.300781 30.867188 L 3.558594 35.980469 C 3.578125 36.050781 3.597656 36.121094 3.625 36.1875 C 3.628906 36.210938 3.628906 36.234375 3.632812 36.257812 L 12.660156 91.660156 C 13.253906 95.328125 16.496094 98 20.230469 98 C 20.636719 98 21.046875 97.96875 21.453125 97.902344 L 36.664062 95.515625 L 91.53125 86.933594 C 93.558594 86.617188 95.378906 85.515625 96.578125 83.859375 C 97.738281 82.257812 98.21875 80.261719 97.902344 78.3125 L 88.871094 22.886719 C 88.695312 21.800781 87.671875 21.058594 86.585938 21.230469 L 31.347656 29.882812 L 85.34375 13.78125 C 86.402344 13.464844 87.003906 12.355469 86.691406 11.296875 L 85.546875 7.445312 C 84.578125 4.136719 81.488281 2.003906 78.160156 2.003906 Z M 78.160156 6.003906 C 79.789062 6.003906 81.253906 7.027344 81.707031 8.566406 C 81.707031 8.570312 81.710938 8.570312 81.710938 8.574219 L 82.265625 10.457031 L 74.371094 6.917969 L 77.109375 6.148438 C 77.460938 6.050781 77.8125 6.003906 78.160156 6.003906 Z M 63.050781 10.101562 L 71.269531 13.804688 L 60.230469 17.097656 L 51.699219 13.292969 Z M 40.375 16.480469 L 49.128906 20.40625 L 38.066406 23.707031 L 29.070312 19.660156 Z M 17.699219 22.859375 L 26.984375 27.011719 L 15.910156 30.3125 L 7.046875 26.351562 C 7.484375 25.914062 8.019531 25.582031 8.667969 25.398438 Z M 85.242188 25.492188 L 93.957031 78.957031 C 94.105469 79.867188 93.894531 80.746094 93.339844 81.511719 C 92.761719 82.308594 91.929688 82.820312 90.914062 82.980469 L 36.046875 91.5625 L 20.832031 93.953125 C 20.832031 93.953125 20.828125 93.953125 20.828125 93.953125 C 20.632812 93.984375 20.425781 94 20.230469 94 C 18.359375 94 16.890625 92.753906 16.609375 91.019531 L 8.917969 43.824219 L 15.421875 36.421875 L 27.046875 34.601562 L 20.300781 42.28125 L 31.960938 40.460938 L 38.691406 32.777344 L 50.285156 30.964844 L 43.558594 38.640625 L 55.179688 36.820312 L 61.925781 29.140625 L 73.535156 27.324219 L 66.820312 35 L 78.421875 33.179688 L 78.441406 33.179688 L 85.167969 25.503906 Z M 81.023438 36.8125 L 15.539062 47.074219 C 15.011719 47.160156 14.542969 47.441406 14.230469 47.875 C 13.917969 48.308594 13.789062 48.84375 13.875 49.371094 L 20.171875 87.996094 C 20.332031 88.976562 21.175781 89.675781 22.140625 89.675781 C 22.246094 89.675781 22.347656 89.667969 22.453125 89.652344 L 87.9375 79.402344 C 88.464844 79.320312 88.933594 79.035156 89.246094 78.601562 C 89.558594 78.167969 89.6875 77.632812 89.601562 77.105469 L 83.304688 38.464844 C 83.128906 37.378906 82.109375 36.65625 81.023438 36.8125 Z M 81.023438 36.8125 "/>
</g>
</svg>
