<svg xmlns="http://www.w3.org/2000/svg" viewBox="0 0 919.36 378.11"><defs><style>.cls-1{fill:#fff;}.cls-2{fill:none;stroke:#000;stroke-miterlimit:10;stroke-width:2.83px;}.cls-3{font-size:72px;font-family:Menlo-Regular, Menlo;}</style></defs><g id="Top_Window" data-name="Top Window"><g id="_Layer_" data-name=" Layer "><rect class="cls-1" x="853.31" y="9.89" width="31.82" height="32.45"/><path class="cls-1" d="M837.4,9.89V42.34H805.59V9.89ZM829.58,33V19.28H813.41V33Z"/><rect class="cls-1" x="813.41" y="19.28" width="16.17" height="13.67"/><rect class="cls-1" x="757.88" y="9.89" width="31.81" height="32.45"/><path class="cls-1" d="M917.94,53.5V331.28c-.1,6.21-5.56,11.08-12.84,13.7a36.39,36.39,0,0,1-6.82,1.7H46.65c-10.85,0-19.65-6.9-19.65-15.4V53.5Z"/><path d="M917.94,13.72V53.5H27V16.8C27,8.3,35.8,1.41,46.65,1.41H902.22C910.9,1.41,917.94,6.92,917.94,13.72ZM885.13,42.34V9.89H853.31V42.34Zm-47.73,0V9.89H805.59V42.34Zm-47.71,0V9.89H757.88V42.34Z"/><path class="cls-1" d="M905.18,345.19V346c0,6.91-5.81,12.75-13.81,15.24a29,29,0,0,1-5.84,1.15H33.9c-10.86-1-19.66-7.89-19.66-16.39V31.47c0-4.92,4.06-9.93,9-12.4L21,22.26,15.9,26.71,15,38l1,25.88H27V331.28c0,8.5,8.8,15.4,19.65,15.4H898.28a36.39,36.39,0,0,0,6.82-1.7Z"/><path class="cls-1" d="M892.35,361.44v.75c0,8.51-8.8,15.4-19.65,14.4H21.07c-10.86,1-19.66-5.89-19.66-14.4V73.89H13.1l.06-39.64h1.08V346c0,8.5,8.8,15.39,19.66,16.39H885.53a29,29,0,0,0,5.84-1.15Z"/><path d="M27,53.5V63.83H16L15,38l1-11.24L21,22.26l2.29-3.19a2.26,2.26,0,0,1,.35-.17l3.38,1Z"/><path d="M23.43,18.84l.19.06a2.26,2.26,0,0,0-.35.17Z"/><path d="M13.16,34.25,13.1,73.89H1.41V47.71C1.41,41.92,7.05,36,13.16,34.25Z"/><path class="cls-2" d="M23.27,19.07c-5,2.47-9,7.48-9,12.4V346c0,8.5,8.8,15.39,19.66,16.39H885.53a29,29,0,0,0,5.84-1.15c8-2.49,13.81-8.33,13.81-15.24v-.76"/><path class="cls-2" d="M26,18a15.16,15.16,0,0,0-2.37.9"/><path class="cls-2" d="M892.35,361.44v.75c0,8.51-8.8,15.4-19.65,14.4H21.07c-10.86,1-19.66-5.89-19.66-14.4V47.71c0-5.79,5.64-11.71,11.75-13.46L13.1,73.89H1.41"/><polyline class="cls-2" points="27 63.84 15.96 63.84 14.96 37.95 15.9 26.71 20.98 22.27 23.27 19.07 23.43 18.84 23.63 18.91 27 19.89"/><path class="cls-2" d="M27,19.89V16.8C27,8.3,35.8,1.41,46.65,1.41H902.22c8.68,0,15.72,5.51,15.72,12.31V331.28c-.1,6.21-5.56,11.08-12.84,13.7a36.39,36.39,0,0,1-6.82,1.7H46.65c-10.85,0-19.65-6.9-19.65-15.4V19.89Z"/><line class="cls-2" x1="27" y1="53.5" x2="917.94" y2="53.5"/><rect class="cls-2" x="757.88" y="9.89" width="31.81" height="32.45"/><rect class="cls-2" x="805.59" y="9.89" width="31.81" height="32.45"/><rect class="cls-2" x="853.31" y="9.89" width="31.82" height="32.45"/><line class="cls-2" x1="765.34" y1="33.25" x2="782.22" y2="33.25"/><polyline class="cls-2" points="861.8 18.55 869.23 26.13 876.64 33.7"/><polyline class="cls-2" points="861.8 33.7 869.23 26.13 876.64 18.55"/><rect class="cls-2" x="813.41" y="19.28" width="16.17" height="13.67"/></g><text id="Hello_there" data-name="Hello there" class="cls-3" transform="translate(85.39 175.05)">Hello there... </text></g></svg>