<?xml version="1.0" encoding="UTF-8"?><svg id="Layer_2" xmlns="http://www.w3.org/2000/svg" viewBox="0 0 734.15 801.46"><defs><style>.cls-1{fill:#fff;}</style></defs><g id="_ÎÓÈ_1"><g><polygon points="98.54 107.32 109.25 142.77 146.1 132.35 156.81 167.8 193.63 157.38 204.34 192.8 241.19 182.38 251.87 217.83 288.72 207.41 299.43 242.83 336.25 232.42 346.96 267.87 383.81 257.44 394.52 292.87 431.35 282.45 442.06 317.9 478.88 307.48 489.59 342.9 526.44 332.48 537.15 367.93 573.97 357.51 584.68 392.94 621.53 382.54 632.21 417.97 669.06 407.54 677.77 436.41 676.19 397.72 667.48 368.85 630.63 379.27 619.95 343.85 583.1 354.24 572.39 318.82 535.57 329.24 524.85 293.79 488.01 304.21 477.3 268.79 440.48 279.21 429.76 243.76 392.94 254.17 382.23 218.75 345.38 229.17 334.67 193.72 297.85 204.14 287.14 168.72 250.29 179.14 239.61 143.69 202.76 154.11 192.05 118.68 155.23 129.1 144.51 93.65 107.67 104.08 96.95 68.63 66.97 77.12 68.56 115.81 98.54 107.32"/><polygon points="732.57 427.38 688.9 439.73 652.05 450.15 615.23 460.57 578.38 470.99 541.55 481.41 511.54 489.88 513.12 528.58 543.13 520.1 579.96 509.68 616.81 499.26 653.63 488.84 690.48 478.42 734.15 466.07 732.57 427.38"/><polygon points="465.9 495.67 455.19 460.22 456.77 498.91 467.48 534.36 478.16 569.79 490.88 611.82 527.7 601.4 536.43 630.24 549.12 672.27 585.97 661.85 594.67 690.69 605.38 726.14 603.8 687.45 593.09 652 584.39 623.16 547.54 633.58 534.85 591.55 526.12 562.71 489.29 573.12 476.58 531.09 465.9 495.67"/><polygon points="320.13 576.02 330.81 611.47 329.23 572.78 318.55 537.32 320.13 576.02"/><polygon points="293.99 621.89 304.69 657.31 303.11 618.62 292.41 583.2 293.99 621.89"/><polygon points="267.84 667.74 278.56 703.19 276.97 664.49 266.26 629.04 267.84 667.74"/><polygon points="649.47 681.66 612.62 692.08 614.17 730.12 579.66 739.88 542.81 750.3 505.98 760.72 495.27 725.27 484.57 689.85 447.72 700.27 435.03 658.24 426.33 629.39 389.48 639.81 376.79 597.78 368.06 568.94 338.07 577.41 339.63 615.45 311.94 623.28 313.49 661.29 285.82 669.12 287.37 707.14 259.67 714.97 261.23 753.01 226.72 762.76 214.01 720.76 203.3 685.31 192.59 649.89 181.9 614.43 171.2 579.01 160.49 543.58 149.78 508.13 139.07 472.71 128.36 437.26 117.66 401.84 106.95 366.38 96.35 331.27 85.64 295.84 74.94 260.42 64.23 224.97 53.52 189.55 42.81 154.1 32.1 118.67 21.39 83.22 10.69 47.8 0 12.34 1.58 51.04 12.27 86.49 22.97 121.92 33.68 157.36 44.39 192.79 55.1 228.24 65.81 263.66 76.52 299.11 87.22 334.54 97.93 369.96 108.53 405.08 119.24 440.53 129.94 475.95 140.65 511.4 151.36 546.83 162.07 582.27 172.78 617.7 183.48 653.12 194.17 688.58 204.88 724 215.59 759.45 228.3 801.46 271.97 789.11 270.41 751.07 298.1 743.24 296.55 705.23 324.22 697.4 322.67 659.38 350.37 651.55 348.81 613.51 369.64 607.63 378.37 636.47 391.06 678.51 427.91 668.08 436.61 696.93 449.3 738.96 486.15 728.54 496.85 763.96 507.57 799.41 544.39 788.99 581.24 778.57 624.91 766.23 623.35 728.19 651.05 720.35 649.47 681.66"/></g><path d="M709.17,349.92l-36.82,10.42-10.71-35.45-36.85,10.42-10.71-35.42-36.82,10.42-10.71-35.45-36.85,10.42-10.71-35.42-36.82,10.42-10.71-35.45-36.82,10.42-10.71-35.42-36.85,10.42-10.71-35.45-36.82,10.42-10.71-35.43-36.85,10.4-10.68-35.43-36.85,10.42-10.71-35.45-36.82,10.42-10.71-35.42-36.85,10.42-10.71-35.45-36.82,10.42-10.71-35.43-36.85,10.42L43.67,0,0,12.34,10.69,47.8l10.71,35.43,10.71,35.45,10.71,35.42,10.71,35.45,10.71,35.42,10.71,35.45,10.71,35.42,10.71,35.42,10.6,35.12,10.71,35.45,10.71,35.42,10.71,35.45,10.71,35.42,10.71,35.45,10.71,35.42,10.71,35.43,10.69,35.45,10.71,35.42,10.71,35.45,12.71,42,43.67-12.34-10.71-35.45,36.85-10.42-10.71-35.43,36.82-10.42-10.71-35.43,36.85-10.42-10.71-35.45,29.98-8.47,8.73,28.84,12.69,42.03,36.85-10.42,8.7,28.85,12.69,42.03,36.85-10.42,10.71,35.42,10.71,35.45,36.82-10.42,36.85-10.42,43.67-12.34-10.71-35.45,36.85-10.42-10.71-35.42-12.69-42.03-36.85,10.42-8.7-28.85-12.71-42.03-36.82,10.42-8.73-28.84-10.71-35.45,30.01-8.47,36.82-10.42,36.85-10.42,36.82-10.42,36.85-10.42,43.67-12.34-10.71-35.45-12.68-42.01Zm-62.97,56.27l-36.85,10.42-36.83,10.42-36.82,10.42-36.85,10.42-43.67,12.34,10.71,35.45,10.68,35.43,12.71,42.03,36.82-10.42,8.73,28.84,12.69,42.03,36.85-10.42,8.7,28.84,10.71,35.45-30.01,8.47-36.82,10.42-10.71-35.43-36.85,10.42-8.71-28.87-12.69-42.01-36.85,10.42-8.71-28.87-12.71-42.01-36.83,10.4-10.71-35.42-43.67,12.34,10.68,35.45-36.82,10.42,10.71,35.42-36.85,10.42,10.71,35.45-29.98,8.47-8.73-28.86-10.71-35.43-10.71-35.42-10.68-35.45-10.71-35.43-10.71-35.45-10.71-35.42-10.71-35.45-10.71-35.43-10.6-35.12-2.09-6.92-8.61-28.51-10.71-35.45-10.71-35.42-10.71-35.45-10.71-35.43-10.71-35.45-10.8-35.76,29.98-8.49,10.71,35.45,36.85-10.42,10.71,35.45,36.82-10.42,10.71,35.42,36.85-10.42,10.69,35.45,36.85-10.42,10.71,35.42,36.82-10.42,10.71,35.45,36.85-10.42,10.71,35.43,36.82-10.42,10.71,35.45,36.82-10.42,10.71,35.42,36.85-10.42,10.71,35.45,36.82-10.42,10.71,35.42,36.85-10.4,10.68,35.43,36.85-10.42,8.71,28.87-29.99,8.47Z"/><polygon class="cls-1" points="630.63 379.27 619.95 343.85 583.1 354.24 572.39 318.82 535.57 329.24 524.85 293.79 488.01 304.21 477.3 268.79 440.48 279.21 429.76 243.76 392.94 254.17 382.23 218.75 345.38 229.17 334.67 193.72 297.85 204.14 287.14 168.72 250.29 179.14 239.61 143.69 202.76 154.11 192.05 118.68 155.23 129.1 144.51 93.65 107.67 104.08 96.95 68.63 66.97 77.12 77.77 112.88 88.48 148.33 99.19 183.76 109.9 219.21 120.61 254.63 131.32 290.08 139.93 318.59 142.02 325.5 152.62 360.62 163.32 396.05 174.04 431.5 184.74 466.92 195.45 502.37 206.16 537.79 216.84 573.25 227.55 608.67 238.26 644.1 246.99 672.96 276.97 664.49 266.26 629.04 303.11 618.62 292.41 583.2 329.23 572.78 318.55 537.32 362.21 524.98 372.92 560.41 409.75 550.01 422.46 592.02 431.17 620.89 468.02 610.46 480.7 652.47 489.41 681.34 526.26 670.92 536.96 706.34 573.79 695.92 603.8 687.45 593.09 652 584.39 623.16 547.54 633.58 534.85 591.55 526.12 562.71 489.29 573.12 476.58 531.09 465.9 495.67 455.19 460.22 498.86 447.87 535.71 437.45 572.53 427.03 609.36 416.61 646.2 406.19 676.19 397.72 667.48 368.85 630.63 379.27"/></g></svg>