<?xml version="1.0" encoding="UTF-8"?><svg id="Layer_2" xmlns="http://www.w3.org/2000/svg" viewBox="0 0 1177.21 255.85"><defs><style>.cls-1{letter-spacing:-.08em;}.cls-2{letter-spacing:0em;}.cls-3{letter-spacing:0em;}.cls-4,.cls-5{fill:#fff;}.cls-6{letter-spacing:-.11em;}.cls-5{font-family:SignPainter-HouseScriptSemibold, SignPainter;font-size:95px;font-weight:700;stroke:#000;stroke-linecap:square;stroke-linejoin:bevel;}</style></defs><g id="Layer_1-2"><path class="cls-4" d="M1175.31,145.75c2.41,.14,2.57,7.54,.19,7.68-37.86,2.29-75.89,2.08-113.81,3.2-37.96,1.13-75.91,2.47-113.85,4.38-143.6,7.23-286.85,20.57-429.63,37.42-143.5,16.94-286.71,36.56-429.69,57.41-1.27,.18-1.56-4.26-.11-4.5,75.82-12.38,151.67-24.36,227.66-35.68,50.88-7.59,101.86-14.69,152.9-21.27-25.73,.84-51.49,.87-77.3-.09-2.96-.11-3.12-8.89-.23-9.42,37.51-6.88,75.26-12.28,113.07-17.13,32.12-4.11,64.27-7.92,96.39-11.96,30.08-3.78,60.04-8.35,90.28-10.67,53.07-4.08,108.26-4.95,158.56-23.95-16.08-6.37-33.72-8.61-50.93-9.07-25.1-.65-50.19,2.08-74.96,5.92-23.29,3.6-46.41,8.23-69.55,12.69-22.01,4.25-43.94,7.49-66.18,10.21-65.34,8-130.43,17.8-195.55,27.34C262.98,187.23,132.69,205.03,1.45,204.56c-1.86-.01-1.96-5.93-.15-5.94,70.61-.35,141.07-5.95,211.16-14.22,130.78-15.43,260.38-39.25,391.06-55.34,44.24-5.44,87.49-16.92,131.65-23.01,23.13-3.2,46.65-5.46,70.02-4.1,19.69,1.15,39.8,4.71,57.17,14.54,2.27,1.28,2.91,9,.25,10.17-9.03,3.98-18.28,7.3-27.68,10.12,24.78-4.44,49.57-8.83,74.4-12.93,31.7-5.23,63.5-8.97,95.3-13.39,1.78-.24,2.18,5.97,.15,6.25-19.1,2.66-38.07,6.56-57.07,9.86-19.08,3.31-38.18,6.48-57.25,9.88-37.68,6.73-75.35,13.47-113.04,20.12-19.66,3.46-39.36,6.88-59.09,10.15,9.11-.84,18.22-1.66,27.33-2.46,71.5-6.28,143.11-11.36,214.8-14.83,35.79-1.73,71.59-3.18,107.41-3.97,35.77-.78,71.71-1.85,107.44,.29h0Z"/></g><text class="cls-5" transform="translate(250.65 131.81) rotate(-4.9) scale(1.06 1)"><tspan class="cls-1" x="0" y="0">T</tspan><tspan class="cls-3" x="30.88" y="0">hin</tspan><tspan class="cls-2" x="122.83" y="0">g</tspan><tspan class="cls-3" x="160.64" y="0">s I</tspan><tspan class="cls-6" x="228.09" y="0">’</tspan><tspan class="cls-3" x="239.68" y="0">m Good At</tspan></text><path d="M770.74,147.28c.15,.96-30.3,6.14-53.24,9.61-18.23,2.77-31.31,4.38-56.21,7.46-33.05,4.09-57.4,6.71-63.97,7.42-6.12,.66-27.08,2.88-54.62,5.43-8.06,.75-18.55,1.65-39.54,3.46-41.91,3.62-48.79,4.1-48.89,3.47-.19-1.27,27.13-6.05,29.21-6.41,31.41-5.46,53.82-7.29,74.72-9.23,47.13-4.36,39.42-4.92,102.87-11.07,28.34-2.75,27.96-2.45,59.2-5.54,34.01-3.36,50.36-5.28,50.46-4.61Z"/></svg>