<?xml version="1.0" encoding="utf-8"?>
<!-- Generator: Adobe Illustrator 26.3.1, SVG Export Plug-In . SVG Version: 6.00 Build 0)  -->
<svg version="1.1" id="Layer_2_00000165219911838568611780000008102558530369490816_"
	 xmlns="http://www.w3.org/2000/svg" xmlns:xlink="http://www.w3.org/1999/xlink" x="0px" y="0px" viewBox="0 0 1177.7 237.1"
	 style="enable-background:new 0 0 1177.7 237.1;" xml:space="preserve">
<style type="text/css">
	.st0{fill:#FFFFFF;}
	.st1{fill:#FFFFFF;stroke:#000000;stroke-linecap:square;stroke-linejoin:bevel;stroke-miterlimit:10;}
	.st2{font-family:'SignPainter-HouseScriptSemibold';}
	.st3{font-size:95px;}
</style>
<g id="Layer_1-2">
	<path class="st0" d="M1175.6,126.7c2.4,0.1,2.6,7.5,0.2,7.7c-37.9,2.3-75.9,2.1-113.8,3.2c-38,1.1-75.9,2.5-113.8,4.4
		c-143.6,7.2-286.8,20.6-429.6,37.4C375,196.3,231.8,216,88.8,236.8c-1.3,0.2-1.6-4.3-0.1-4.5c75.8-12.4,151.7-24.4,227.7-35.7
		c50.9-7.6,101.9-14.7,152.9-21.3c-25.7,0.8-51.5,0.9-77.3-0.1c-3-0.1-3.1-8.9-0.2-9.4c37.5-6.9,75.3-12.3,113.1-17.1
		c32.1-4.1,64.3-7.9,96.4-12c30.1-3.8,60-8.4,90.3-10.7c53.1-4.1,108.3-5,158.6-24c-16.1-6.4-33.7-8.6-50.9-9.1
		c-25.1-0.7-50.2,2.1-75,5.9c-23.3,3.6-46.4,8.2-69.5,12.7c-22,4.2-43.9,7.5-66.2,10.2c-65.3,8-130.4,17.8-195.5,27.3
		c-129.6,19-259.9,36.8-391.1,36.3c-1.9,0-2-5.9-0.1-5.9c70.6-0.3,141.1-5.9,211.2-14.2c130.8-15.4,260.4-39.2,391.1-55.3
		c44.2-5.4,87.5-16.9,131.7-23c23.1-3.2,46.7-5.5,70-4.1c19.7,1.2,39.8,4.7,57.2,14.5c2.3,1.3,2.9,9,0.2,10.2
		c-9,4-18.3,7.3-27.7,10.1c24.8-4.4,49.6-8.8,74.4-12.9c31.7-5.2,63.5-9,95.3-13.4c1.8-0.2,2.2,6,0.2,6.2
		c-19.1,2.7-38.1,6.6-57.1,9.9c-19.1,3.3-38.2,6.5-57.2,9.9c-37.7,6.7-75.3,13.5-113,20.1c-19.7,3.5-39.4,6.9-59.1,10.2
		c9.1-0.8,18.2-1.7,27.3-2.5c71.5-6.3,143.1-11.4,214.8-14.8c35.8-1.7,71.6-3.2,107.4-4C1103.9,125.6,1139.8,124.6,1175.6,126.7
		L1175.6,126.7z"/>
</g>
<g>
	<text transform="matrix(1.0598 -9.083311e-02 8.539405e-02 0.9963 241.0908 113.6124)" class="st1 st2 st3">Things I’m Good At</text>
</g>
<g id="XMLID_00000114751980294006456040000000021293713283981484_">
	<g>
		<path d="M771,128.2c0.1,1-30.3,6.1-53.2,9.6c-18.2,2.8-31.3,4.4-56.2,7.5c-33.1,4.1-57.4,6.7-64,7.4c-6.1,0.7-27.1,2.9-54.6,5.4
			c-8.1,0.7-18.6,1.7-39.5,3.5c-41.9,3.6-48.8,4.1-48.9,3.5c-0.2-1.3,27.1-6.1,29.2-6.4c31.4-5.5,53.8-7.3,74.7-9.2
			c47.1-4.4,39.4-4.9,102.9-11.1c28.3-2.7,28-2.5,59.2-5.5C754.6,129.5,770.9,127.6,771,128.2z"/>
	</g>
	<g>
	</g>
</g>
</svg>
